<svg xmlns="http://www.w3.org/2000/svg" viewBox="0 0 760.58 106.8"><defs><style>.cls-1{fill:#fff;}</style></defs><title>webmethod_white</title><g id="Layer_2" data-name="Layer 2"><g id="webmethod"><path class="cls-1" d="M0,29.2H30.38V44.58H23.81L30,65.31,42,29.2H58.4l12.07,38,7.41-22.58H71.65V29.2H102V44.58H94.22l-15.55,43H61.88L49.69,50.48,37.29,87.6H20.94l-14.43-43H0Z"/><path class="cls-1" d="M123.87,61.94l.17,1.74a11.45,11.45,0,0,0,2.11,4.43,13.7,13.7,0,0,0,3.51,3.2,15.23,15.23,0,0,0,4.49,1.94,19.66,19.66,0,0,0,5,.65,36.76,36.76,0,0,0,4.8-.31,43.35,43.35,0,0,0,4.4-.84c1.43-.36,2.81-.77,4.16-1.24s2.71-1,4.1-1.49l6.18,11.51c-2.14,1.31-4.09,2.43-5.87,3.34a38,38,0,0,1-5.36,2.28,32,32,0,0,1-5.73,1.32,52.24,52.24,0,0,1-7.08.42,34.17,34.17,0,0,1-13.47-2.5,28.79,28.79,0,0,1-9.92-6.77,29.13,29.13,0,0,1-6.12-10,35,35,0,0,1-2.1-12.13,32.42,32.42,0,0,1,2.22-12,29.08,29.08,0,0,1,15.92-16.39,31.19,31.19,0,0,1,12.46-2.42A30.56,30.56,0,0,1,149.9,29a25.29,25.29,0,0,1,8.95,6.29,27.93,27.93,0,0,1,5.62,9.43,36.82,36.82,0,0,1,2.13,11.65,26.36,26.36,0,0,1,.2,2.78c0,.92,0,1.86-.08,2.84Zm13.42-21.23a16.56,16.56,0,0,0-5.36.76,10.93,10.93,0,0,0-3.73,2.08,10.63,10.63,0,0,0-2.42,3,16.42,16.42,0,0,0-1.4,3.54h24.31a18.87,18.87,0,0,0-1.12-3.6,9.6,9.6,0,0,0-2-3,9.13,9.13,0,0,0-3.29-2.05A14,14,0,0,0,137.29,40.71Z"/><path class="cls-1" d="M172.5,0h25.38V30.49a32.5,32.5,0,0,1,6.23-2.25,27.72,27.72,0,0,1,6.57-.78,29.39,29.39,0,0,1,21.45,9A31,31,0,0,1,240.67,58a31.68,31.68,0,0,1-2.22,11.85,29.69,29.69,0,0,1-6.2,9.68A29.15,29.15,0,0,1,222.76,86a30.07,30.07,0,0,1-12.08,2.38,32.55,32.55,0,0,1-6.73-.67,32.06,32.06,0,0,1-6.07-1.91v1.57H180.64v-72H172.5Zm37,43a13.2,13.2,0,0,0-6.65,1.68,14.4,14.4,0,0,0-5,4.83V66.88a13.53,13.53,0,0,0,4.8,4.35,13.71,13.71,0,0,0,6.71,1.66,14.52,14.52,0,0,0,5.45-1,13.53,13.53,0,0,0,4.52-3,14.09,14.09,0,0,0,3.06-4.66,15.94,15.94,0,0,0,1.12-6.15,16.82,16.82,0,0,0-1.12-6.29,14.53,14.53,0,0,0-3-4.77,13,13,0,0,0-4.47-3A14.1,14.1,0,0,0,209.5,43Z"/><path class="cls-1" d="M248.75,29.2h26.62v5.05a29.66,29.66,0,0,1,8.09-4.55A26.2,26.2,0,0,1,292.72,28a25.59,25.59,0,0,1,11.37,2.33,16.93,16.93,0,0,1,7.44,7.1,27.69,27.69,0,0,1,4.19-3.79,30.66,30.66,0,0,1,5-3,27.76,27.76,0,0,1,5.53-2,24.84,24.84,0,0,1,5.92-.7q10.67,0,16.4,5.9t5.73,17.23V72h8.25V87.37H336V54c0-3.29-.85-5.88-2.56-7.75a9.12,9.12,0,0,0-7.1-2.81A12.36,12.36,0,0,0,320.38,45a17.6,17.6,0,0,0-5.53,5.14c0,.41,0,.83,0,1.26V72h8.43V87.37H296.77V53.91a12,12,0,0,0-.73-4.27,9.74,9.74,0,0,0-2-3.26,9.08,9.08,0,0,0-3.06-2.1,10.48,10.48,0,0,0-3.9-.82,14.09,14.09,0,0,0-5.81,1.24,15.33,15.33,0,0,0-5.76,4.77V72h9.32V87.37H248.64V72h8.65V44.58h-8.54Z"/><path class="cls-1" d="M384.81,61.94l.17,1.74a11.45,11.45,0,0,0,2.11,4.43,13.7,13.7,0,0,0,3.51,3.2,15.23,15.23,0,0,0,4.49,1.94,19.66,19.66,0,0,0,5,.65,36.76,36.76,0,0,0,4.8-.31,43.35,43.35,0,0,0,4.4-.84c1.43-.36,2.81-.77,4.16-1.24s2.71-1,4.1-1.49l6.18,11.51c-2.14,1.31-4.09,2.43-5.87,3.34a38,38,0,0,1-5.36,2.28,32,32,0,0,1-5.73,1.32,52.24,52.24,0,0,1-7.08.42,34.17,34.17,0,0,1-13.47-2.5,28.79,28.79,0,0,1-9.92-6.77,29.13,29.13,0,0,1-6.12-10,35,35,0,0,1-2.1-12.13,32.42,32.42,0,0,1,2.22-12,29.08,29.08,0,0,1,15.92-16.39,31.19,31.19,0,0,1,12.46-2.42A30.56,30.56,0,0,1,410.84,29a25.29,25.29,0,0,1,9,6.29,27.93,27.93,0,0,1,5.62,9.43,36.82,36.82,0,0,1,2.13,11.65,26.36,26.36,0,0,1,.2,2.78c0,.92,0,1.86-.08,2.84Zm13.42-21.23a16.56,16.56,0,0,0-5.36.76,10.93,10.93,0,0,0-3.73,2.08,10.46,10.46,0,0,0-2.42,3,16.42,16.42,0,0,0-1.4,3.54h24.31a18.87,18.87,0,0,0-1.12-3.6,9.6,9.6,0,0,0-2-3,9.22,9.22,0,0,0-3.29-2.05A14,14,0,0,0,398.23,40.71Z"/><path class="cls-1" d="M458.26,29.2h11.62V43.91H458.15L458,68.51a14.6,14.6,0,0,0,.34,3.45,5.4,5.4,0,0,0,1,2.1,3.21,3.21,0,0,0,1.55,1.07,6.89,6.89,0,0,0,2.08.28,15.16,15.16,0,0,0,3.76-.42c1.08-.28,2.17-.61,3.26-1l2.41,10.84A26.57,26.57,0,0,1,466,87.71a28.89,28.89,0,0,1-8.34,1.07,18.4,18.4,0,0,1-6.54-1.18A15.21,15.21,0,0,1,445.68,84a17.25,17.25,0,0,1-3.76-6,22,22,0,0,1-1.35-8.36l.17-25.78h-8.37V29.2h8.43l.11-13.93L458.37,7Z"/><path class="cls-1" d="M479.93,0h26.23V34.59a26.27,26.27,0,0,1,7.27-4.75,21.79,21.79,0,0,1,8.73-1.71q10.5,0,16.06,5.87t5.56,17.15V72h8.53V87.37h-26V55.09a11.44,11.44,0,0,0-2.42-7.7,7.85,7.85,0,0,0-6.23-2.81,12.91,12.91,0,0,0-5.5,1.41,25.2,25.2,0,0,0-6,4.1V72h8.53V87.37H479.93V72h9V15.39h-9Z"/><path class="cls-1" d="M558.6,58.06a30.67,30.67,0,0,1,2.31-11.9,29.72,29.72,0,0,1,16.17-16.29,33.52,33.52,0,0,1,25,0,30.15,30.15,0,0,1,9.8,6.57,29.76,29.76,0,0,1,6.37,9.72,31,31,0,0,1,2.27,11.9A32.18,32.18,0,0,1,618.27,70,29.35,29.35,0,0,1,612,79.76a29.68,29.68,0,0,1-9.77,6.6,34.48,34.48,0,0,1-25.38,0,28.89,28.89,0,0,1-16-16.31A32.15,32.15,0,0,1,558.6,58.06Zm16.79,0a16.06,16.06,0,0,0,1.13,6.09A14.82,14.82,0,0,0,579.58,69a14,14,0,0,0,4.49,3.14,13.42,13.42,0,0,0,5.47,1.12,13.85,13.85,0,0,0,5.53-1.09A12.86,12.86,0,0,0,599.51,69a14.79,14.79,0,0,0,3-4.8,17,17,0,0,0,1.07-6.15,17.66,17.66,0,0,0-1.07-6.29,14,14,0,0,0-3-4.77,12.55,12.55,0,0,0-4.44-3,15.77,15.77,0,0,0-11,0,13.12,13.12,0,0,0-4.49,3,14.12,14.12,0,0,0-3.06,4.77A16.82,16.82,0,0,0,575.39,58.06Z"/><path class="cls-1" d="M663.38,0h25.44V72h11.34V87.37H671.53V85.13a33.06,33.06,0,0,1-6.21,2.47,23.43,23.43,0,0,1-6.43.9,31,31,0,0,1-12.27-2.39,29.11,29.11,0,0,1-9.6-6.54,29.94,29.94,0,0,1-6.26-9.74,33.14,33.14,0,0,1,0-23.93,29.68,29.68,0,0,1,6.18-9.63,28.61,28.61,0,0,1,9.49-6.45,30.51,30.51,0,0,1,12.15-2.36,31.9,31.9,0,0,1,6.86.7,32.44,32.44,0,0,1,6.12,2V15.39h-8.15Zm-3.53,73a13.71,13.71,0,0,0,6.71-1.91,15.66,15.66,0,0,0,5-4.72V49.25a13.82,13.82,0,0,0-5.09-4.64A14.8,14.8,0,0,0,654.37,44a13.62,13.62,0,0,0-4.49,3,14.42,14.42,0,0,0-3.06,4.71,17.83,17.83,0,0,0,0,12.44,14.05,14.05,0,0,0,3.06,4.72,13.23,13.23,0,0,0,4.49,2.95A16.72,16.72,0,0,0,659.85,73Z"/><path class="cls-1" d="M703.08,92.43h57.5V106.8h-57.5Z"/></g></g></svg>